<svg width="22" height="22" viewBox="0 0 32 32" fill="none" xmlns="http://www.w3.org/2000/svg">
  <circle cx="16" cy="16" r="16" fill="#2775CA"/>
  <path d="M19.2 18.1c0 1.65-1.33 2.22-4 2.45v1.55h-2.4v-1.52c-2.05-.08-3.6-.55-3.6-2.48h2.64c0 .85.39 1.12 1.68 1.2v-3.35l-.48-.12c-2.3-.58-3.36-1.45-3.36-3.28 0-1.65 1.4-2.28 4.2-2.48V8.5h2.4v1.48c1.95.1 3.4.58 3.4 2.35h-2.64c0-.75-.35-1.02-1.56-1.1v3.05l.48.12c2.42.62 3.48 1.52 3.48 3.4zm-5.76-5.58v2.65c1.02-.05 1.44-.35 1.44-.98 0-.55-.3-.88-1.44-1.05v-.62zm2.4 5.15v-2.78c1.15.08 1.58.42 1.58 1.05 0 .68-.42 1.02-1.58 1.18v.55z" fill="#ffffff"/>
</svg>
